
    <svg xmlns="http://www.w3.org/2000/svg" xmlns:xlink="http://www.w3.org/1999/xlink" style="display: none;">
      <symbol id="horse-icon" viewBox="0 0 750 500">
        
<g id="BACKGROUND">
<g>
<g>
<g>
<rect height="500" style="fill:#FFFFFF;" width="750" y="-0.055"/>
</g>
</g>
</g>
</g>
<g id="OBJECTS">
<g>
<path d="M403.284,116.868c-0.762-4-3.746-4.952-3.746-4.952s-6.984-13.205-7.618-15.173c-0.635-1.968-3.111-7.491-3.111-7.491    s-0.127-3.936-3.047-6.73c-2.92-2.793-7.237-9.46-7.237-9.46s4.888-7.555,4.571-13.65c0,0-0.952,0.106-2.095,0.952    c-1.143,0.846-7.449,6.179-7.618,6.179c-0.169,0-0.762-0.381-0.762-0.381s-0.381-8.296-0.889-8.126    c-0.508,0.169-5.291,2.285-6.179,8.931c0,0-4.486-1.82-8.803,0.254c0,0-4.444-6.095-12.951-3.936l3.047,0.889    c0,0-6.222-1.524-12.063,1.778l2.54,0.635c0,0-7.872-1.27-13.078,3.174c0,0-2.159,0.381-2.92-4.317c0,0-1.587,4.063,2.476,6.603    c0,0-5.333-0.127-6.476-3.809c0,0,0.318,3.936,4.317,5.333c0,0-9.904,1.714-14.221-5.079c-4.317-6.793-4.571-10.031-4.571-10.031    s0.444,8.253,4.952,12.888c0,0-6.476-1.016-10.793-6.222c-4.317-5.206-9.015-5.523-9.015-5.523s5.968,2.476,9.142,7.301    c3.174,4.825,7.746,6.603,7.746,6.603s-5.65-1.016-8.444-4.19c-2.793-3.174-8.571-5.714-12.126-5.016c0,0,5.46,0.635,8.126,3.555    c2.667,2.92,5.904,7.682,8.952,8.698c0,0-2.92-0.127-6.666-3.111c-3.746-2.984-7.365-4.444-9.904-3.492    c0,0,3.682,0.254,5.841,2.032c2.159,1.778,3.682,4.507,6.349,5.46c0,0-3.301,1.27-5.587-0.254    c-2.286-1.524-6.73-3.238-9.967-1.206c0,0,3.968-0.794,6.444,1.048c2.476,1.841,3.079,3.143,4.19,3.46c0,0-5.873-2.095-8.92,0.952    h3.492c0,0-3.873,0.889-4.889,2.666c-1.016,1.778-3.174,4-8.888,2.92c-5.714-1.079-16.274,9.862-31.003,10.116    c-14.729,0.254-31.024-1.354-41.055-5.037c-10.031-3.682-27.553-9.904-47.488-5.587c0,0-22.22-15.872-36.822-15.618l5.46,1.524    c0,0-11.555,1.27-19.808,3.047c-8.253,1.778-15.999,5.841-22.982,0c-6.984-5.841-9.904-6.73-21.84-4.825    c0,0,7.555-0.889,11.872,0.508c4.317,1.397,7.745,6.984,14.094,8.507c0,0-8.126,0.444-14.919-3.492s-9.84-5.46-18.602-3.619    c0,0,7.872-1.079,12.443,1.778c3.993,2.495,6.483,4.409,8.192,5.234c0.438,0.171,0.696,0.29,0.696,0.29    c-0.217-0.072-0.449-0.17-0.696-0.29c-2.313-0.905-10.261-3.484-19.175-0.282c-10.602,3.809-12.316-2.603-12.316-2.603    s-0.381,6.603,11.237,4.381c0,0-10.285,5.587-20.316,4.508S12.586,77.062,10.49,70.205c0,0,1.143,12.888,19.681,17.29    c0,0-15.237,1.439-25.987-4.402c0,0,5.587,6.01,23.956,6.433c0,0-10.158,6.57-21.586,7.644c0,0,8.38,0.482,15.66-2.65    c7.28-3.132,19.046-6.857,28.019-4.74c0,0-16.337,12.105-34.791,10.243c0,0,2.878,1.862,14.136,1.016    c11.258-0.847,18.538-5.587,18.538-5.587s-6.687,7.365-25.564,7.534c0,0,5.248,1.439,15.237,0    c9.989-1.439,14.729-8.973,23.194-9.311c0,0-14.729,11.851-30.897,11.766c0,0,3.217,1.355,11.682,0    c8.465-1.355,18.623-9.566,30.474-8.889c11.851,0.677,17.861,1.185,27.257-0.339c0,0-7.534,4.317-21.501,3.386    c0,0,5.248,1.608,16.845-0.254c11.597-1.862,19.3-7.788,19.3-7.788s-8.465,13.629-32.59,15.322c0,0,10.158,1.608,22.263-3.894    c12.105-5.502,22.855-15.406,22.855-15.406s-11.682,16.168-24.379,20.57c0,0,10.666-1.693,20.908-12.867    c0,0-2.878,4.825-1.354,9.904c0,0-0.085-9.227,8.634-14.56c0,0-3.301,6.857,1.27,12.613c0,0-2.032-8.38,1.27-11.004    c3.301-2.624,9.65,2.624,4.91,9.904c-3.616,5.554-6.438,10.429-7.2,18.737c-0.165,6.488-1.858,13.091,0.174,23.249    c1.581,7.905,7.699,12.609,7.699,12.609s3.579,18.605,2.392,20.567c-1.187,1.962-5.388,4.707-3.566,9.736s1.682,6.372,1.034,8.364    c-0.648,1.991,1.241,4.525,1.241,4.525s1.441,17.412,0.988,22.048c-0.453,4.636,4.42,6.318,4.819,6.441    c0.399,0.123,2.384-0.986,1.731,1.715c-0.653,2.7-1.974,6.807,0.104,7.729c2.078,0.923,9.299,4.446,15.71,2.057l-2.83-8.149    c0,0-0.336-3.159-3.587-4.854c-3.252-1.695-4.948-7.562-5.904-12.376c-0.956-4.813-2.29-11.978-0.835-18.282    c1.455-6.304,8.106-16.886,8.106-16.886s2.577,4.8,3.224,9.698c0.647,4.898,1.095,11.609,1.482,11.934    c0.388,0.325,9.062,2.921,16.474,10.11c7.412,7.189,14.29,13.032,14.197,14.749c-0.093,1.717,2.36,8.783,4.987,8.925    c2.626,0.142,4.17-2.148,4.544,0.304c0.374,2.452,2.405,6.108,4.712,6.536c2.307,0.429,12.414,0.265,12.414,0.265l-3.301-8.205    c0,0-1.152-2.191-6.923-4.124c-5.772-1.933-6.19-8.587-11.699-11.62c-5.509-3.033-15.593-12.322-17.592-20.332    c-1.998-8.01-2.592-9.817-0.777-14.332c6.452-16.048,5.714-26.792,5.714-26.792l2.662-1.925c0,0,5.43,1.433,18.591,5.735    l-0.002-0.002c6.249,2.718,12.435,5.088,16.969,6.096c13.713,3.047,32.378,0.635,32.378,0.635l-14.018,33.844    c-0.046,0.158-0.144,0.476-0.331,1.074c-0.635,2.032-2.793,11.936-6.984,18.284c-4.19,6.349-4.317,4.317-4.19,8.126    c0.127,3.809-1.27,6.857,1.143,7.872c2.413,1.016,8.253,2.794,7.365,3.809c-0.889,1.016-1.27,3.174-1.27,3.174l1.143,2.666h13.586    c0,0-3.301-6.603-3.936-7.364c-0.635-0.762-4.952-3.301-5.333-9.904c-0.381-6.603,5.206-15.11,8.888-19.808    c3.682-4.698,19.935-29.839,21.967-31.87c2.032-2.032,2.032-2.032,2.032-2.032l1.778-2.793l10.92-5.333l5.079,3.809    c0,0,8.253,13.713,9.396,16.634c1.143,2.92,10.412,17.649,11.174,18.792c0.762,1.143,6.095,12.443,6.857,17.015    c0.762,4.571,3.301,11.555,5.714,13.332c2.413,1.778,2.413,9.523,2.413,9.523h15.237l-3.301-6.476c0,0-5.333-3.809-5.714-6.349    c-0.381-2.54-0.508-4.444-3.301-9.142c-2.793-4.698-7.999-13.205-7.872-18.157c0.127-4.952-1.905-11.936-4.825-16.888    c-2.92-4.952-5.714-18.03-5.587-23.871s-2.032-7.618-2.032-7.618s5.333-3.301,6.73-12.189c1.397-8.888,1.397-12.317,1.397-12.317    s8.888-6.095,14.348-13.205c5.46-7.111,13.078-12.951,18.665-12.824c5.587,0.127,8.253,0.508,8.253,0.508s3.174,4.571,9.142,8.507    c5.968,3.936,13.459,6.857,13.459,6.857s1.651,8.825,10.285,6.92c0,0,6.158,0.254,5.968-5.46    C400.301,124.169,404.245,121.908,403.284,116.868z"/>
<path d="M241.964,201.052l0.077-0.185C242.152,200.487,241.964,201.052,241.964,201.052z"/>
<path d="M70.424,79.566c0.248,0.12,0.479,0.217,0.696,0.29C71.121,79.855,70.862,79.737,70.424,79.566z"/>
</g>
<path d="M395.922,158.525c0,0,4.156,7.334,12.142,6.519c0,0-9.698-1.63-11.164-11.979c0,0,3.015,9.698,11.001,10.105   c7.986,0.407,1.385-16.38,2.934-25.67c0,0-1.141,7.09-0.57,12.713c0,0-2.934-12.631,3.504-22.655c0,0-2.689,3.26-4.319,7.008   c0,0,2.648-12.428,15.606-23.307c12.957-10.879,30.437-18.58,40.95-14.302c0,0,23.796-9.005,39.931-7.864   s35.694,7.008,48.732,6.682c13.039-0.326,22.981-10.431,33.575-12.061c5.99-0.922,12.447-1.114,17.636-1.549   c-0.858-0.441-1.256-0.983-1.256-0.983c2.515,1.112,5.151-0.211,5.151-0.211c-1.669,0.78-2.612-0.127-2.612-0.127   s1.765,0.701,2.708-1.185c0.943-1.886,2.757-1.112,2.757-1.112c0.46-1.548,2.08-1.185,2.08-1.185   c0.376-1.447,1.691-2.205,2.942-2.605c-1.418-0.099-2.023-0.853-2.023-0.853s3.047,1.789,5.852-2.128   c2.805-3.917,6.662-1.995,6.662-1.995c-2.2-0.992-1.523-2.974-1.523-2.974c0.653,2.503,3.047,2.358,3.047,2.358   c-1.814-0.363-1.523-2.067-1.523-2.067c0.508,1.669,3.518,1.378,4.316-1.197c0.798-2.575,4.353-2.104,4.353-2.104   c-3.41-1.415-5.32,1.209-5.32,1.209c1.838-4.014,6.19-2.043,6.19-2.043c0.145-2.938,2.757-4.607,5.513-2.974   c2.757,1.632,4.679,0.943,4.679,0.943c-2.285-0.145-2.938-2.116-2.938-2.116c1.354,1.693,3.869,1.741,6.094-1.354   c2.225-3.095,5.707-1.257,5.707-1.257c-1.778-2.418-5.707-1.209-5.707-1.209c4.256-1.934,7.345,0.695,7.345,0.695   c1.016-1.995,2.086-2.267,2.086-2.267c-0.78,0.526-1.233,2.394-1.233,2.394c3.482-4.643,8.27-1.741,8.27-1.741   c-2.031-2.829-6.529-1.719-6.529-1.719c6.166-2.59,10.737,1.647,10.737,1.647s3.906-3.954,9.679,0.43l3.837-1.847   c0,0,7.66-7.416,11.572-8.149c3.912-0.734,2.282,1.385,2.282,1.385l-1.63,3.671l-0.734,9.693c0,0-0.875,3.341,2.7,6.682   c3.575,3.341,4.39,5.216,5.531,9.535c1.141,4.319,10.35,22.41,10.35,22.41s3.423,2.934,3.341,7.416   c-0.081,4.482-3.015,6.275-3.015,6.275s-0.408,4.971-5.46,5.134c0,0-2.526,2.2-6.193,1.385c-3.667-0.815-5.46-7.66-5.46-7.66   c-0.978-0.489-12.876-9.616-17.684-11.49c-4.808-1.874-9.046-4.482-13.935,2.445c-4.89,6.927-18.743,23.796-18.743,23.796   s-1.711,5.541-4.808,9.127c0,0,1.63,5.134-2.363,11.083c-3.993,5.949-9.698,14.18-9.698,14.18s7.742,14.017,8.638,16.054   c0.896,2.037,1.874,4.808,3.178,6.112c1.304,1.304,2.282,3.423,1.956,5.297c-0.326,1.874-0.489,3.504-0.163,4.889   c0.326,1.385,1.059,3.015-1.793,5.949c-2.852,2.934-6.764,8.394-9.453,13.528c-2.689,5.134-2.526,7.416-5.46,8.475   c-2.934,1.059-6.845,5.052-8.149,7.171c-1.304,2.119-4.319,2.119-4.319,2.119s-3.749,5.052-5.623,5.052c-1.874,0-1.874,0-1.874,0   s-2.852-8.312-2.363-12.305s2.608-4.075,2.608-4.075s-0.815-2.037,0.978-3.749c1.793-1.711,11.083-6.601,12.305-7.416   c1.222-0.815,8.964-13.283,8.883-14.343c-0.081-1.059-0.326-2.689-0.326-2.689l-22.899-17.439c0,0-6.356,14.832-6.927,16.624   c-0.571,1.793-2.119,13.854-3.423,15.646c-1.304,1.793-3.097,12.061-3.26,13.691c-0.163,1.63,0,4.564,0,4.564   s1.956,3.423,1.059,5.704c0,0,5.705,5.134,5.786,5.786l0.163,2.852l4.319,5.786c0,0-10.024,3.504-18.58,0.896   c0,0-4.075-2.689-4.156-3.504c-0.082-0.815,0-3.667,0-3.667s-4.808-1.956-3.504-9.535c1.304-7.579,2.363-15.565,2.363-22.492   c0-6.927,1.059-12.142,1.711-13.446c0.652-1.304,0,0.489,0.733-1.63c0.733-2.119,0.978-20.373,0.978-20.373   s-39.442-0.081-45.147-0.734c-5.704-0.652-31.293-12.061-31.293-12.061s-13.039,17.928-15.321,21.025s-5.867,5.704-5.867,5.704   l-3.749,9.616l8.638,14.506c0,0,9.29,6.356,8.638,10.268c-0.652,3.912-0.326,12.713-1.793,15.321   c-1.467,2.608-3.178,9.29-3.667,9.453c-0.489,0.163-2.363,0-2.363,0s-8.72-8.964-8.883-9.616c-0.163-0.652,1.141-5.949,1.141-5.949   s-1.467-1.467-1.711-2.689c-0.244-1.222,0-7.416,0-7.416l-13.039-18.988l-7.294,9.738l-0.489,18.091c0,0,3.912,8.19,3.789,11.001   c-0.122,2.811,3.423,7.212,3.423,7.212s3.3,5.134,3.3,6.479h-15.769l-1.956-6.968c0,0-3.301,0.733-4.523-1.1   c-1.222-1.833-1.1-7.579-1.1-7.579s1.834-25.059,1.589-25.915c-0.244-0.856-0.122-19.314,0.611-21.025   c0.733-1.711,9.901-10.39,10.39-11.979c0.489-1.589,0.244-1.1,0.244-1.1l1.467-8.801c0,0-6.968-22.003-6.112-38.261   c0,0-4.028,7.463-6.389,7.993l1.467-3.056c0,0-8.157,1.786-8.035,11.809c0.122,10.024,1.589,22.37-8.312,27.993   c0,0,5.501-5.623,5.745-14.057c0,0-6.356,16.38-17.602,19.558c-11.246,3.178-16.258-1.711-16.258-1.711s7.538,2.608,12.754,0   c0,0-9.29,1.385-16.787-3.586c-7.497-4.971-8.475-6.682-8.475-6.682s7.416,5.704,14.017,6.764   C409.939,172.297,399.508,168.222,395.922,158.525z"/>
<path d="M466.026,293.789c-6.165,0.237-19.681,9.248-31.656,9.248c-11.975,0-31.893-6.639-44.579-1.067   c0,0,6.876-1.601,12.567-1.067c0,0-17.191,1.423-25.135,9.248c0,0,5.928-3.873,11.777-5.098c0,0-16.875,6.6-22.724,21.538   c0,0,6.323-10.591,14.385-15.176c0,0-8.931,5.375-10.908,20.708c0,0,2.134-8.694,5.375-12.172c0,0-3.636,6.086-3.32,14.622   c0.316,8.536-1.107,17.152-10.117,17.073c0,0,4.861,0.771,7.351-1.541c2.49-2.312,2.786-4.861,2.786-4.861   s-1.047,8.062-8.714,11.066c-7.667,3.004-10.591-0.948-10.591-0.948s2.411,4.505,9.524,2.371c0,0-8.892,6.876-24.7,5.059   c0,0,9.485,4.505,21.42,0.869c0,0-5.493,3.577-15.808,2.272c0,0,13.832,3.26,25.214-0.771c0,0-16.078,9.959-33.513,10.552   c0,0,18.258,4.742,36.279-6.284c0,0-9.011,8.536-27.269,9.485c0,0,18.14,2.845,34.382-9.722   c16.243-12.567,15.65-30.114,15.65-30.114s2.134,11.974-7.588,26.202c0,0,11.145-10.67,10.67-27.387   c-0.474-16.717,4.387-20.985,4.387-20.985s-3.794,10.789,2.134,19.088c0,0-4.703-12.963,1.699-21.104c0,0-3.952,7.746-1.423,14.939   c0,0-1.976-10.67,5.849-15.413c7.825-4.742,18.337-2.845,18.021,0.553c-0.316,3.399-6.323,4.663-6.639,17.784   c-0.316,13.121,1.265,19.444,7.43,28.612c6.165,9.169,5.849,15.412,4.426,17.823c-1.423,2.411-4.426,14.267-10.908,17.112   c-6.481,2.846-1.423,8.22-2.055,13.911c-0.632,5.691-0.158,30.351-1.107,32.09s-5.059,4.9-5.059,7.746l-3.478,5.454   c0,0,1.067,14.346,2.371,14.464c1.304,0.119,6.047-6.995,6.047-6.995s1.66,1.304,2.727,0.118c1.067-1.186,4.387-8.655,6.402-9.603   c2.016-0.949,4.861-3.913,3.083-9.366c-1.778-5.454,0-27.387,2.608-31.893c2.608-4.505,12.33-14.227,12.33-14.227   s0.237,16.598,2.016,21.815c1.778,5.217,7.351,12.923,9.959,18.97c2.608,6.047,3.794,19.562,6.284,20.392   c2.49,0.83,5.572,1.186,6.639,4.861c1.067,3.675,1.067,6.758,1.067,6.758h17.31l-4.742-7.944c0,0,0.118-2.371-2.608-3.557   c-2.727-1.186-4.387,0.356-9.722-9.129s-6.758-23.949-6.876-31.181c-0.119-7.232,6.936-47.246,6.936-47.246   s4.881-8.477,8.833-10.374c3.952-1.897,17.705,12.488,42.524,15.176c24.818,2.687,38.572,0.79,38.572,0.79s5.928,8.457,7.351,9.88   c1.423,1.423,7.588,14.227,4.98,26.083c0,0-5.809,3.201-5.454,7.825c0.356,4.624-4.861,12.686-6.995,13.634   c-2.134,0.949-2.608-1.304-6.758,2.608s-7.351,1.897-7.351,1.897s-3.675,2.727-4.268,3.913c-0.593,1.186-3.912,14.227-3.912,14.227   s10.196-3.557,10.552-3.794c0.356-0.237,7.232-2.016,8.418-5.217c1.186-3.201,5.572-1.067,9.485-4.979   c3.913-3.913,10.552-12.33,13.042-14.583c2.49-2.253,6.047-4.15,6.995-6.876s2.134-11.856,2.134-11.856s5.454,14.03,7.509,16.559   c2.055,2.529,3.162,9.485,2.213,15.018c-0.948,5.533,0.158,10.749,1.739,12.33c1.581,1.581,9.09,4.426,9.248,6.086   c0.158,1.66,3.636,5.059,3.636,5.059h16.598c0,0-3.636-7.351-4.901-9.248c-1.265-1.897-8.536-4.031-9.801-5.059   c-1.265-1.027-5.138-3.873-6.797-13.595c-1.66-9.722-0.316-22.21-1.581-27.269c-1.265-5.059-0.553-33.434-0.553-33.434   s7.43-5.059,7.904-20.076c0.474-15.018,8.536-22.922,17.073-29.877c8.536-6.956,21.815-15.808,21.815-15.808   s7.153-1.699,12.251,3.043s11.737,7.943,16.598,10.908c4.861,2.964,8.852,7.232,12.488,8.497c3.636,1.265,5.454-1.265,5.454-1.265   s4.584,0,5.296-4.505c0,0,3.438-2.371,2.49-8.418c-0.948-6.047-4.979-8.181-4.979-8.181l-9.841-17.665c0,0,0-6.363-2.608-10.631   c-2.608-4.268-5.849-7.035-5.849-7.035s1.66-9.801-9.169-12.33c0,0,4.189,1.976,4.979,4.189c0,0-3.952-3.399-9.327-3.478   c0,0-6.244-9.722-7.193-9.406c-0.949,0.316-0.79,7.588-1.976,9.327c-1.186,1.739-1.739,2.687-1.739,2.687   s-4.821-7.193-15.097-8.615c0,0,7.509,2.213,12.093,8.457c0,0-9.88-8.853-20.629-5.059c0,0,8.299-2.134,16.915,5.296   c0,0-7.509-2.687-12.725,1.265l2.45-3.003c0,0-4.268,2.608-6.323,5.059c0,0,1.265-3.241,4.11-5.533c0,0-6.244,1.107-10.354,7.351   l2.055-4.268l-4.268,5.375c0,0-7.43-4.96-15.373-4.426c0,0,5.454,0.474,10.433,6.106c0,0-6.047-3.102-14.425-2.628   c0,0,8.378,1.028,11.303,4.031c0,0-9.722-3.478-16.203,2.213l4.347-1.423c0,0-3.952,2.055-5.533,5.612   c0,0-7.469-0.395-11.619,5.177c0,0-10.196-6.521-24.068-0.711c0,0,11.974-2.845,20.748,2.49c0,0-15.887-3.913-26.439,2.253   c-10.552,6.165-22.052,10.315-28.573,10.433c-6.521,0.118-30.47,1.778-41.733-1.66C480.846,296.872,477.289,292.96,466.026,293.789   z"/>
<path d="M100.89,254.332c0,0-2.613-6.38-5.534-9.07c-2.921-2.69-6.303-2.393-6.303,0.572c0,2.964-0.692,8.729,0,10.42h-1.46   c0,0-1.614-2.921-3.689-4.612c-2.075-1.691-6.226-7.84-7.763-7.302c-1.537,0.538-3.228,2.921-1.845,7.148   s-0.538,7.456,2.075,12.067c0,0-6.994,0.154-9.3,7.148c0,0,2.152-3.151,5.765-3.689c0,0-3.459,1.922-2.998,6.456l1.307-2.229   c0,0-2.152,8.916-2.075,13.989c0.077,5.073,0.154,14.911-2.729,19.638c-2.882,4.727-5.995,11.645-5.995,11.645   s-4.381,1.96-4.496,7.148c-0.115,5.188,2.998,7.494,2.998,7.494s1.691,4.419,5.841,5.649c0,0,5.303,4.151,10.837,0.615   c5.534-3.536,4.765-7.379,10.299-10.453c5.534-3.074,18.139-9.454,23.827-20.676c0,0,9.992,5.38,16.602,13.681   c6.61,8.301,6.918,14.757,5.073,19.984c-1.845,5.227-2.921,10.146,4.15,23.366c0,0-4.304,7.84-3.689,21.06   c0.615,13.22-0.615,17.524-3.074,21.982c-2.46,4.458-5.227,6.456-3.843,14.757c1.383,8.301-4.15,22.136-5.38,26.748   c-1.23,4.612,1.383,7.994,0.769,10.914c-0.615,2.921-3.997,6.303-4.458,9.377c-0.461,3.074-0.307,9.838-0.307,9.838   s11.683,0.461,14.45-3.459s2.844-9.531,2.229-11.452c-0.615-1.922-0.461-4.919,1.691-7.84c2.152-2.921-0.999-11.99,0.692-18.908   c1.691-6.917,5.38-16.141,7.071-21.367c1.691-5.227,19.369-31.206,20.753-32.435c1.383-1.23,4.612-1.691,4.612-1.691   s10.146,3.382,18.139,2.921c0,0,8.147,12.759,8.455,17.371c0.307,4.612-0.615,12.144,4.919,17.678   c5.534,5.534,9.992,9.684,11.068,15.987c1.076,6.303,4.458,9.377,4.458,9.377s1.23,1.691,1.383,3.997   c0.154,2.306-0.115,9.339,3.805,9.223c3.92-0.115,10.261-6.917,10.376-11.414c0.115-4.496-1.268-8.07-1.729-8.647   c-0.461-0.577-4.727-0.807-4.496-4.842c0.231-4.035,1.384-6.918-5.649-11.299c-7.033-4.381-6.11-11.76-7.148-14.873   c-1.038-3.113-2.998-6.687-2.536-9.339c0.461-2.652,0.115-1.383,0.115-1.383v-25.249c0,0,26.171-1.345,42.773-19.331   c0,0,3.689,14.142,9.07,17.678c5.38,3.536,0.154,9.07,0,16.448c-0.154,7.379-2.46,17.678-5.073,23.52   c-2.613,5.842-4.112,8.032-3.42,11.837c0.692,3.805-1.499,5.419-2.536,8.301c-1.038,2.882-0.461,10.837-0.461,10.837   s8.071,0.461,11.068-1.384c2.998-1.845,3.391-5.765,2.849-8.07c-0.543-2.306-2.042-2.882-0.427-4.15   c1.614-1.268,3.228-4.958,2.306-10.261c-0.922-5.303,3.459-17.986,5.303-20.291c1.845-2.306,1.038-0.692,2.306-2.882   c1.268-2.191,2.536-7.609,2.536-7.609s6.456,14.296,7.84,19.062c1.384,4.765,3.382,7.686,3.382,7.686v5.534   c0,0-1.537,8.455-0.769,9.608c0.769,1.153,5.995,2.921,9.531-0.615c3.536-3.536,3.151-7.609,2.844-8.378   c-0.307-0.769-2.383-4.765-2.306-5.15c0.077-0.384,2.767-5.38-0.115-9.531c-2.882-4.151-8.647-14.757-8.993-20.637   c-0.346-5.88-7.033-19.853-7.033-19.853s3.766-22.767,5.457-25.687c1.691-2.921,5.841-10.607,7.071-17.986   c0,0-3.19,15.103,6.841,26.517c0,0-5.419-11.068-4.842-18.677c0,0,0.461,20.983,21.56,22.943c0,0-12.567-2.882-16.794-12.874   c0,0,7.917,11.606,21.291,11.837c13.374,0.231,18.216-5.303,18.216-5.303s-10.069,4.612-22.905,2.69   c0,0,17.371,2.075,27.055-11.145c0,0-6.111,4.304-18.562,5.918c0,0,9.454-1.384,13.835-8.532c0,0-16.602,10.837-26.978-0.576   c-10.376-11.414,6.341-21.675,4.958-35.049c0,0,1.46,6.11-1.768,13.335c0,0,7.609-10.607,0.999-26.44   c-6.61-15.833-28.592-13.528-28.592-13.528s10.837-2.767,21.214,2.306c0,0-16.41-11.299-37.047,0.922   c0,0-19.984-5.534-31.821-2.613c-11.837,2.921-16.91,15.987-35.356,16.295c0,0-8.608-7.994-20.138-7.84   c-11.529,0.154-19.83,0.154-19.83,0.154s-3.766-5.188-8.609-7.033c0,0,5.918,0.739,8.993,3.882c0,0-3.382-5.765-12.067-6.379   c0,0,4.842-1.998,10.299,0.845c0,0-3.843-3.459-13.066-3.382c0,0-0.384-7.609-8.839-7.84c-8.455-0.231-7.84-4.612-7.84-4.612   s2.921,4.689,9.761,3.536c0,0-5.15,0.384-6.918-3.382c-1.768-3.766-5.765-4.458-9.3-2.383c0,0,2.46-4.227,9.146-1.614   c0,0-5.995-4.074-12.375,1.076c0,0,1.48-3.267,7.014-4.304c0,0-5.938-0.634-10.492,4.669c0,0-1.518-3.478-6.053-2.517   c-4.535,0.961-3.882-1.96-3.882-1.96s-1.076,2.075,1.845,3.228C110.305,251.219,104.809,249.105,100.89,254.332z"/>
</g>

      </symbol>
    </svg>
    